<svg width="60" height="60" viewBox="0 0 60 60" fill="none" xmlns="http://www.w3.org/2000/svg">
<path d="M41.7094 13.0254H4.52344V57.5439H41.7094V13.0254Z" fill="#99CCFF"/>
<path d="M41.7094 58.073H4.52338C4.23552 58.073 4 57.8375 4 57.5497V13.0312C4 12.7433 4.23552 12.5078 4.52338 12.5078H41.7094C41.9972 12.5078 42.2327 12.7433 42.2327 13.0312V57.5497C42.2327 57.8375 41.9972 58.073 41.7094 58.073ZM5.04676 57.0263H41.186V13.5546H5.04676V57.0263Z" fill="#006AE3"/>
<path d="M41.7094 10.043H4.52344V54.5615H41.7094V10.043Z" fill="white"/>
<path d="M41.7094 55.0848H4.52338C4.23552 55.0848 4 54.8493 4 54.5614V10.0429C4 9.75505 4.23552 9.51953 4.52338 9.51953H41.7094C41.9972 9.51953 42.2327 9.75505 42.2327 10.0429V54.5614C42.2327 54.8493 41.9972 55.0848 41.7094 55.0848ZM5.04676 54.038H41.186V10.5663H5.04676V54.038Z" fill="#006AE3"/>
<path d="M25.9507 8.03391L26.1757 3.5852C26.1757 1.89469 24.8045 0.523438 23.1192 0.523438C21.4339 0.523438 20.0574 1.89469 20.0574 3.5852L20.2825 8.03391H16.1426V13.5294H30.0906V8.03391H25.9507Z" fill="#99CCFF"/>
<path d="M30.0905 14.0527H16.1425C15.8547 14.0527 15.6191 13.8172 15.6191 13.5293V8.03385C15.6191 7.74599 15.8547 7.51047 16.1425 7.51047H19.7277L19.534 3.61132C19.534 1.60678 21.1408 0 23.1192 0C25.0975 0 26.6991 1.60677 26.6991 3.58514L26.5002 7.51047H30.0853C30.3732 7.51047 30.6087 7.74599 30.6087 8.03385V13.5293C30.6087 13.8172 30.3732 14.0527 30.0853 14.0527H30.0905ZM16.6659 13.0059H29.5672V8.55723H25.9506C25.8093 8.55723 25.668 8.49966 25.5738 8.39498C25.4743 8.29031 25.422 8.149 25.4325 8.00769L25.6575 3.55898C25.6575 2.18773 24.5218 1.04676 23.1192 1.04676C21.7165 1.04676 20.5808 2.18249 20.5808 3.58514L20.8058 8.00769C20.811 8.149 20.7639 8.29031 20.6645 8.39498C20.5651 8.49966 20.429 8.55723 20.2877 8.55723H16.6711V13.0059H16.6659Z" fill="#006AE3"/>
<path d="M23.9206 3.78452C23.9206 3.33965 23.5595 2.97852 23.1146 2.97852C22.6697 2.97852 22.3086 3.33965 22.3086 3.78452C22.3086 4.22939 22.6697 4.59053 23.1146 4.59053C23.5595 4.59053 23.9206 4.22939 23.9206 3.78452Z" fill="#006AE3"/>
<path d="M36.0893 18.7479H27.7519C27.464 18.7479 27.2285 18.5124 27.2285 18.2245C27.2285 17.9367 27.464 17.7012 27.7519 17.7012H36.0893C36.3772 17.7012 36.6127 17.9367 36.6127 18.2245C36.6127 18.5124 36.3772 18.7479 36.0893 18.7479Z" fill="#006AE3"/>
<path d="M36.0893 24.8925H27.7519C27.464 24.8925 27.2285 24.6569 27.2285 24.3691C27.2285 24.0812 27.464 23.8457 27.7519 23.8457H36.0893C36.3772 23.8457 36.6127 24.0812 36.6127 24.3691C36.6127 24.6569 36.3772 24.8925 36.0893 24.8925Z" fill="#006AE3"/>
<path d="M36.0893 31.0428H27.7519C27.464 31.0428 27.2285 30.8073 27.2285 30.5195C27.2285 30.2316 27.464 29.9961 27.7519 29.9961H36.0893C36.3772 29.9961 36.6127 30.2316 36.6127 30.5195C36.6127 30.8073 36.3772 31.0428 36.0893 31.0428Z" fill="#006AE3"/>
<path d="M36.0894 37.1913H9.79486C9.507 37.1913 9.27148 36.9558 9.27148 36.6679C9.27148 36.3801 9.507 36.1445 9.79486 36.1445H36.0894C36.3772 36.1445 36.6127 36.3801 36.6127 36.6679C36.6127 36.9558 36.3772 37.1913 36.0894 37.1913Z" fill="#006AE3"/>
<path d="M36.0894 43.3358H9.79486C9.507 43.3358 9.27148 43.1003 9.27148 42.8124C9.27148 42.5246 9.507 42.2891 9.79486 42.2891H36.0894C36.3772 42.2891 36.6127 42.5246 36.6127 42.8124C36.6127 43.1003 36.3772 43.3358 36.0894 43.3358Z" fill="#006AE3"/>
<path d="M21.9781 28.0837C21.9781 25.739 19.5078 23.1797 17.2625 23.1797C15.0172 23.1797 12.5469 25.7442 12.5469 28.0837C12.5469 30.4232 15.0172 30.6849 17.2625 30.6849C19.5078 30.6849 21.9781 30.4285 21.9781 28.0837Z" fill="#99CCFF"/>
<path d="M17.2625 31.2083C15.6923 31.2083 12.0234 31.2082 12.0234 28.0837C12.0234 25.4459 14.7188 22.6562 17.2625 22.6562C19.8061 22.6562 22.5015 25.4459 22.5015 28.0837C22.5015 31.2082 18.8326 31.2083 17.2625 31.2083ZM17.2625 23.703C15.305 23.703 13.0702 26.0373 13.0702 28.0837C13.0702 29.5805 14.2478 30.1615 17.2625 30.1615C20.2771 30.1615 21.4547 29.5805 21.4547 28.0837C21.4547 26.0373 19.2199 23.703 17.2625 23.703Z" fill="#006AE3"/>
<path d="M13.6772 22.7562C13.6772 21.7565 12.8659 20.9453 11.861 20.9453C10.8562 20.9453 10.0449 21.7565 10.0449 22.7562C10.0449 23.7558 10.8562 24.5723 11.861 24.5723C12.8659 24.5723 13.6772 23.7611 13.6772 22.7562Z" fill="#99CCFF"/>
<path d="M11.861 25.0898C10.5735 25.0898 9.52148 24.043 9.52148 22.7503C9.52148 21.4575 10.5682 20.416 11.861 20.416C13.1537 20.416 14.2005 21.4628 14.2005 22.7503C14.2005 24.0378 13.1537 25.0898 11.861 25.0898ZM11.861 21.4628C11.1492 21.4628 10.5682 22.0437 10.5682 22.7503C10.5682 23.4568 11.1492 24.043 11.861 24.043C12.5728 24.043 13.1537 23.4621 13.1537 22.7503C13.1537 22.0385 12.5728 21.4628 11.861 21.4628Z" fill="#006AE3"/>
<path d="M24.4811 22.7562C24.4811 21.7565 23.6699 20.9453 22.6703 20.9453C21.6706 20.9453 20.8594 21.7565 20.8594 22.7562C20.8594 23.7558 21.6706 24.5723 22.6703 24.5723C23.6699 24.5723 24.4811 23.7611 24.4811 22.7562Z" fill="#99CCFF"/>
<path d="M22.6643 25.0898C21.3768 25.0898 20.3301 24.043 20.3301 22.7503C20.3301 21.4575 21.3768 20.416 22.6643 20.416C23.9518 20.416 24.9986 21.4628 24.9986 22.7503C24.9986 24.0378 23.9518 25.0898 22.6643 25.0898ZM22.6643 21.4628C21.9525 21.4628 21.3768 22.0437 21.3768 22.7503C21.3768 23.4568 21.9578 24.043 22.6643 24.043C23.3709 24.043 23.9519 23.4621 23.9519 22.7503C23.9519 22.0385 23.3709 21.4628 22.6643 21.4628Z" fill="#006AE3"/>
<path d="M19.0801 19.8493C19.0801 18.8444 18.2689 18.0332 17.264 18.0332C16.2591 18.0332 15.4531 18.8444 15.4531 19.8493C15.4531 20.8542 16.2644 21.6654 17.264 21.6654C18.2637 21.6654 19.0801 20.8542 19.0801 19.8493Z" fill="#99CCFF"/>
<path d="M17.264 22.1888C15.9765 22.1888 14.9297 21.142 14.9297 19.8493C14.9297 18.5565 15.9765 17.5098 17.264 17.5098C18.5515 17.5098 19.6035 18.5565 19.6035 19.8493C19.6035 21.142 18.5567 22.1888 17.264 22.1888ZM17.264 18.5617C16.5522 18.5617 15.9764 19.1427 15.9764 19.8545C15.9764 20.5663 16.5574 21.1472 17.264 21.1472C17.9705 21.1472 18.5567 20.5663 18.5567 19.8545C18.5567 19.1427 17.9758 18.5617 17.264 18.5617Z" fill="#006AE3"/>
<path d="M55.7243 48.7909C55.7243 42.8872 50.9407 38.1035 45.037 38.1035C39.1333 38.1035 34.3496 42.8872 34.3496 48.7909C34.3496 54.6946 39.1333 59.4782 45.037 59.4782C50.9407 59.4782 55.7243 54.6946 55.7243 48.7909Z" fill="white"/>
<path d="M45.0428 60.0016C38.8617 60.0016 33.832 54.9719 33.832 48.7908C33.832 42.6097 38.8617 37.5801 45.0428 37.5801C51.2239 37.5801 56.2535 42.6097 56.2535 48.7908C56.2535 54.9719 51.2239 60.0016 45.0428 60.0016ZM45.0428 38.6321C39.4374 38.6321 34.8788 43.1907 34.8788 48.7961C34.8788 54.4014 39.4374 58.96 45.0428 58.96C50.6482 58.96 55.2068 54.4014 55.2068 48.7961C55.2068 43.1907 50.6482 38.6321 45.0428 38.6321Z" fill="#0068DE"/>
<path d="M51.8744 46.6401H47.4257V42.1914H42.6577V46.6401H38.209V51.4081H42.6577V55.8568H47.4257V51.4081H51.8744V46.6401Z" fill="#B5FDFF"/>
<path d="M47.9484 56.3795H42.1284V51.9308H37.6797V46.1108H42.1284V41.6621H47.9484V46.1108H52.3971V51.9308H47.9484V56.3795ZM43.1752 55.3327H46.9016V50.884H51.3503V47.1576H46.9016V42.7089H43.1752V47.1576H38.7264V50.884H43.1752V55.3327Z" fill="#0068DE"/>
</svg>
