<svg width="27" height="25" viewBox="0 0 27 25" fill="none" xmlns="http://www.w3.org/2000/svg">
<path d="M0.387096 11.8921C0.387096 5.32518 6.34483 0 13.6935 0C21.0423 0 27 5.32518 27 11.8921C27 14.7963 25.8311 17.4589 23.8954 19.5215L24.5658 24.4133C24.6203 24.8092 24.218 25.1133 23.8494 24.9592L18.8594 22.8508C17.2674 23.4466 15.5244 23.78 13.6935 23.78C6.34483 23.7841 0.387096 18.4589 0.387096 11.8921ZM8.41035 10.8004C7.46348 10.8004 6.69677 11.5629 6.69677 12.5046C6.69677 13.4463 7.46348 14.2088 8.41035 14.2088C9.35722 14.2088 10.1239 13.4463 10.1239 12.5046C10.1197 11.5587 9.35303 10.8004 8.41035 10.8004ZM18.9767 14.2046C19.9236 14.2046 20.6903 13.4421 20.6903 12.5004C20.6903 11.5587 19.9236 10.7962 18.9767 10.7962C18.0299 10.7962 17.2632 11.5587 17.2632 12.5004C17.2632 13.4421 18.0299 14.2046 18.9767 14.2046ZM15.4029 12.5004C15.4029 11.5587 14.6362 10.7962 13.6894 10.7962C12.7425 10.7962 11.9758 11.5587 11.9758 12.5004C11.9758 13.4421 12.7425 14.2046 13.6894 14.2046C14.6362 14.2046 15.4029 13.4421 15.4029 12.5004Z" fill="#2962F6"/>
</svg>
