<svg width="71" height="21" viewBox="0 0 71 21" fill="none" xmlns="http://www.w3.org/2000/svg">
<path d="M5.95045 6.70005C5.60137 7.50047 5.02662 8.34203 4.30847 9.10249C3.56916 9.90291 2.66531 10.6011 1.74147 11.1559L0.140625 9.28702C1.29013 8.62999 2.37852 7.72614 3.2001 6.57663C4.02168 5.44711 4.53414 4.13305 4.53414 2.65562V0.931359H7.20339V2.61448C7.20339 4.07193 7.73701 5.30371 8.53743 6.30982C9.33785 7.35707 10.4262 8.13752 11.4935 8.65115L10.056 10.6011C8.08491 9.53385 6.79084 8.26093 5.94928 6.70005H5.95045ZM4.53414 12.0797H15.3134V19.9429H4.53414V12.0797ZM7.06 14.2353V17.8072H12.7676V14.2353H7.06ZM15.3134 11.3404H12.7676V0.5H15.3134V4.81124H18.2906V6.96685H15.3134V11.3404Z" fill="#004599"/>
<path d="M25.5082 9.08251C24.7901 8.4055 24.2353 7.68618 23.9074 7.02915C23.5994 7.76845 23.0446 8.56888 22.3265 9.32816C21.5872 10.0874 20.7045 10.8679 19.7195 11.4638L18.1387 9.55383C19.3916 8.73225 20.52 7.78843 21.2804 6.70005C22.0397 5.63282 22.5122 4.40103 22.5122 3.0047V0.931359H25.2226V2.96356C25.2226 4.50329 25.7151 5.69393 26.5155 6.65891C27.2748 7.64504 28.3632 8.38317 29.4516 8.93794L28.0141 10.9302C27.1102 10.4377 26.2275 9.80066 25.5094 9.08251H25.5082ZM32.3653 19.2882C31.4614 20.0475 30.2097 20.5 28.7311 20.5C27.2524 20.5 26.0207 20.0487 25.138 19.2882C24.2341 18.4878 23.7217 17.3782 23.7217 16.0031C23.7217 14.6279 24.2353 13.5806 25.138 12.7802C26.0207 11.9798 27.2524 11.5073 28.7311 11.5073C30.2097 11.5073 31.4614 11.9798 32.3653 12.7802C33.248 13.5806 33.7816 14.6902 33.7816 16.0031C33.7816 17.3159 33.248 18.4878 32.3653 19.2882ZM30.5588 14.3199C30.0863 13.9097 29.4704 13.6629 28.7311 13.6629C27.2524 13.6629 26.2264 14.6079 26.2264 16.0042C26.2264 17.4006 27.2524 18.3655 28.7311 18.3655C30.2097 18.3655 31.2769 17.4205 31.2769 16.0042C31.2769 15.326 30.9889 14.7313 30.5588 14.3211V14.3199ZM31.5449 6.16761H27.9518V3.90856H31.5449V0.5H34.0907V11.4426H31.5449V6.16643V6.16761Z" fill="#004599"/>
<path d="M41.0865 12.9624V11.6072C39.1365 11.1758 38.0681 9.80066 38.0681 8.1575C38.0681 7.25364 38.5195 6.37094 39.2588 5.73507H36.7741V3.70287H47.8201V5.73507H45.4177C46.157 6.3921 46.5883 7.2748 46.5883 8.19864C46.5883 9.82064 45.6034 11.1547 43.6523 11.586V12.839C45.3977 12.7367 47.1431 12.6133 48.8674 12.4288V0.5H51.3932V6.98801H54.2682V9.14363H51.3932V17.7261H48.8674V14.4821C44.8641 14.9335 40.7574 15.2414 36.5484 15.3648L36.3027 13.0658C37.9036 13.0658 39.4844 13.0247 41.0865 12.9636V12.9624ZM39.7724 0.582276H44.803V2.71791H39.7724V0.582276ZM40.4906 8.15867C40.4906 9.04137 41.1887 9.73954 42.3182 9.73954C43.4478 9.73954 44.1459 9.04137 44.1459 8.15867C44.1459 7.27598 43.4689 6.55665 42.3182 6.55665C41.1676 6.55665 40.4906 7.2748 40.4906 8.15867Z" fill="#004599"/>
<path d="M61.5178 8.46662C62.1536 9.67842 63.0786 10.5611 64.207 11.3204L62.6872 13.2715C61.9691 12.779 61.2086 12.0597 60.6139 11.3204C59.978 10.5811 59.4844 9.80066 59.2998 9.16479C58.7251 10.9713 57.4933 12.43 55.9324 13.6617L54.3516 11.7929C55.5833 10.7257 56.5072 9.78068 57.1031 8.5489C57.6778 7.3371 57.9658 5.85966 57.9658 3.74401H54.9686V1.60837H63.4477V3.74401H60.5116C60.5116 5.73507 60.8607 7.25482 61.5178 8.46662ZM68.3748 8.03526H66.814V17.008H64.3504V0.746827H66.814V5.87964H68.3748V0.5H70.8596V17.705H68.3748V8.03526Z" fill="#004599"/>
</svg>
